<svg xmlns="http://www.w3.org/2000/svg" width="1300" height="780" viewBox="0 0 1300 780" font-family="Segoe UI, Helvetica, Arial, sans-serif">
<defs><marker id="ah" markerWidth="10" markerHeight="10" refX="8" refY="3" orient="auto" markerUnits="strokeWidth"><path d="M0,0 L8,3 L0,6 Z" fill="#8b949e"/></marker></defs>
<rect width="1300" height="780" fill="#0d1117"/>
<text x="55" y="58" font-size="34" font-weight="800" fill="#e6edf3">🕌 Fasih-TTS-V1</text>
<text x="55" y="86" font-size="16" fill="#8b949e">Arabic (MSA / Fusha) professional-male Text-to-Speech — system architecture</text>
<text x="55" y="132" font-size="14" font-weight="700" fill="#8b949e" letter-spacing="2">TRAINING PIPELINE</text>
<rect x="55" y="150" width="176.66666666666666" height="78" rx="14" fill="#334155"/><rect x="55" y="150" width="6" height="78" rx="3" fill="#94a3b8"/><text x="143.33333333333331" y="183.0" text-anchor="middle" font-size="18" font-weight="700" fill="#ffffff">Dataset</text><text x="143.33333333333331" y="205.0" text-anchor="middle" font-size="12.5" fill="#cbd5e1">1517 clips · MP3</text><rect x="257.66666666666663" y="150" width="176.66666666666666" height="78" rx="14" fill="#334155"/><rect x="257.66666666666663" y="150" width="6" height="78" rx="3" fill="#94a3b8"/><text x="345.99999999999994" y="183.0" text-anchor="middle" font-size="18" font-weight="700" fill="#ffffff">Validate</text><text x="345.99999999999994" y="205.0" text-anchor="middle" font-size="12.5" fill="#cbd5e1">QC · manifests</text><rect x="460.33333333333326" y="150" width="176.66666666666666" height="78" rx="14" fill="#0f766e"/><rect x="460.33333333333326" y="150" width="6" height="78" rx="3" fill="#5eead4"/><text x="548.6666666666666" y="183.0" text-anchor="middle" font-size="18" font-weight="700" fill="#ffffff">Diacritize</text><text x="548.6666666666666" y="205.0" text-anchor="middle" font-size="12.5" fill="#cbd5e1">CATT · tashkeel</text><rect x="662.9999999999999" y="150" width="176.66666666666666" height="78" rx="14" fill="#334155"/><rect x="662.9999999999999" y="150" width="6" height="78" rx="3" fill="#94a3b8"/><text x="751.3333333333333" y="183.0" text-anchor="middle" font-size="18" font-weight="700" fill="#ffffff">Preprocess</text><text x="751.3333333333333" y="205.0" text-anchor="middle" font-size="12.5" fill="#cbd5e1">24 kHz · trim</text><rect x="865.6666666666665" y="150" width="176.66666666666666" height="78" rx="14" fill="#1f6feb"/><rect x="865.6666666666665" y="150" width="6" height="78" rx="3" fill="#7ab7ff"/><text x="953.9999999999999" y="183.0" text-anchor="middle" font-size="18" font-weight="700" fill="#ffffff">Fine-tune</text><text x="953.9999999999999" y="205.0" text-anchor="middle" font-size="12.5" fill="#cbd5e1">XTTS v2 · FP32</text><rect x="1068.3333333333333" y="150" width="176.66666666666666" height="78" rx="14" fill="#334155"/><rect x="1068.3333333333333" y="150" width="6" height="78" rx="3" fill="#94a3b8"/><text x="1156.6666666666665" y="183.0" text-anchor="middle" font-size="18" font-weight="700" fill="#ffffff">Evaluate</text><text x="1156.6666666666665" y="205.0" text-anchor="middle" font-size="12.5" fill="#cbd5e1">CER · Whisper</text><line x1="231.66666666666666" y1="189.0" x2="257.66666666666663" y2="189.0" stroke="#8b949e" stroke-width="2.5" marker-end="url(#ah)"/><line x1="434.33333333333326" y1="189.0" x2="460.33333333333326" y2="189.0" stroke="#8b949e" stroke-width="2.5" marker-end="url(#ah)"/><line x1="636.9999999999999" y1="189.0" x2="662.9999999999999" y2="189.0" stroke="#8b949e" stroke-width="2.5" marker-end="url(#ah)"/><line x1="839.6666666666665" y1="189.0" x2="865.6666666666665" y2="189.0" stroke="#8b949e" stroke-width="2.5" marker-end="url(#ah)"/><line x1="1042.3333333333333" y1="189.0" x2="1068.3333333333333" y2="189.0" stroke="#8b949e" stroke-width="2.5" marker-end="url(#ah)"/>
<text x="55" y="392" font-size="14" font-weight="700" fill="#8b949e" letter-spacing="2">INFERENCE RUNTIME</text>
<rect x="55" y="410" width="217.2" height="82" rx="14" fill="#334155"/><rect x="55" y="410" width="6" height="82" rx="3" fill="#94a3b8"/><text x="163.6" y="445.0" text-anchor="middle" font-size="18" font-weight="700" fill="#ffffff">Raw Arabic text</text><text x="163.6" y="467.0" text-anchor="middle" font-size="12.5" fill="#cbd5e1">even undiacritized</text><rect x="298.2" y="410" width="217.2" height="82" rx="14" fill="#0f766e"/><rect x="298.2" y="410" width="6" height="82" rx="3" fill="#5eead4"/><text x="406.79999999999995" y="445.0" text-anchor="middle" font-size="18" font-weight="700" fill="#ffffff">Text Front-End</text><text x="406.79999999999995" y="467.0" text-anchor="middle" font-size="12.5" fill="#cbd5e1">normalize·numbers·diacritize·lexicon·chunk</text><rect x="537.4" y="406" width="225.2" height="90" rx="17" fill="none" stroke="#c4b5fd" stroke-width="2" opacity="0.55"/><rect x="541.4" y="410" width="217.2" height="82" rx="14" fill="#7c3aed"/><rect x="541.4" y="410" width="6" height="82" rx="3" fill="#c4b5fd"/><text x="650.0" y="445.0" text-anchor="middle" font-size="18" font-weight="700" fill="#ffffff">Fasih-TTS-V1</text><text x="650.0" y="467.0" text-anchor="middle" font-size="12.5" fill="#cbd5e1">XTTS v2 fine-tuned</text><rect x="784.5999999999999" y="410" width="217.2" height="82" rx="14" fill="#334155"/><rect x="784.5999999999999" y="410" width="6" height="82" rx="3" fill="#94a3b8"/><text x="893.1999999999999" y="445.0" text-anchor="middle" font-size="18" font-weight="700" fill="#ffffff">24 kHz Speech</text><text x="893.1999999999999" y="467.0" text-anchor="middle" font-size="12.5" fill="#cbd5e1">mono waveform</text><rect x="1027.8" y="410" width="217.2" height="82" rx="14" fill="#b45309"/><rect x="1027.8" y="410" width="6" height="82" rx="3" fill="#fbbf24"/><text x="1136.3999999999999" y="445.0" text-anchor="middle" font-size="18" font-weight="700" fill="#ffffff">Serving</text><text x="1136.3999999999999" y="467.0" text-anchor="middle" font-size="12.5" fill="#cbd5e1">FastAPI stream · CLI</text><line x1="272.2" y1="451.0" x2="298.2" y2="451.0" stroke="#8b949e" stroke-width="2.5" marker-end="url(#ah)"/><line x1="515.4" y1="451.0" x2="541.4" y2="451.0" stroke="#8b949e" stroke-width="2.5" marker-end="url(#ah)"/><line x1="758.5999999999999" y1="451.0" x2="784.5999999999999" y2="451.0" stroke="#8b949e" stroke-width="2.5" marker-end="url(#ah)"/><line x1="1001.8" y1="451.0" x2="1027.8" y2="451.0" stroke="#8b949e" stroke-width="2.5" marker-end="url(#ah)"/>
<path d="M953.9999999999999,228 C953.9999999999999,310 650.0,300 650.0,410" fill="none" stroke="#7c3aed" stroke-width="2.5" stroke-dasharray="6 5" marker-end="url(#ah)"/>
<text x="810.0" y="330" font-size="12.5" fill="#c4b5fd" font-style="italic">produces the model</text>
<text x="55" y="576" font-size="14" font-weight="700" fill="#8b949e" letter-spacing="2">BENCHMARKS</text>
<rect x="55" y="596" width="270" height="60" rx="12" fill="#161b22" stroke="#30363d"/><text x="73" y="622" font-size="13" fill="#8b949e">Intelligibility (CER)</text><text x="73" y="644" font-size="20" font-weight="800" fill="#3fb950">1.3%  ≈ human 1.8%</text>
<rect x="350" y="596" width="270" height="60" rx="12" fill="#161b22" stroke="#30363d"/><text x="368" y="622" font-size="13" fill="#8b949e">Run-to-run variance</text><text x="368" y="644" font-size="20" font-weight="800" fill="#3fb950">0.0  (identical ×4)</text>
<rect x="645" y="596" width="270" height="60" rx="12" fill="#161b22" stroke="#30363d"/><text x="663" y="622" font-size="13" fill="#8b949e">Real-time factor</text><text x="663" y="644" font-size="20" font-weight="800" fill="#3fb950">RTF ~0.60</text>
<rect x="940" y="596" width="305" height="60" rx="12" fill="#161b22" stroke="#30363d"/><text x="958" y="622" font-size="13" fill="#8b949e">Streaming first-audio</text><text x="958" y="644" font-size="20" font-weight="800" fill="#3fb950">~675 ms</text>
<text x="55" y="756" font-size="12.5" fill="#8b949e">Base: Coqui XTTS v2  ·  Diacritization: CATT  ·  ASR judge: Whisper-large-v3  ·  Single professional male voice, ~2.4 h</text>
</svg>